<svg width="242" height="101" viewBox="0 0 242 101" fill="none" xmlns="http://www.w3.org/2000/svg">
<path d="M43.0959 30.5912H35.1598L33.452 35.1556H30.7397L37.8721 16.8979H40.484L47.6164 35.1556H44.9041L43.0959 30.5912ZM42.2922 28.4547L39.7808 21.8508C39.5799 21.3653 39.379 20.6854 39.1781 19.9085H39.0776C38.8767 20.5883 38.6758 21.2681 38.4749 21.8508L35.9635 28.4547H42.2922Z" fill="black"/>
<path d="M52.9406 18.9374V24.7643H60.4749V26.9008H52.9406V35.0585H50.3288V16.8979H61.6804V19.0345H52.9406V18.9374Z" fill="black"/>
<path d="M79.3607 35.0585C79.3607 35.0585 78.6575 35.1556 77.8539 35.1556C72.5297 35.1556 74.137 27.9691 69.2146 27.9691H67.7078V34.9614H65.0959V16.8979H70.8219C75.242 16.8979 77.7534 18.646 77.7534 22.5306C77.7534 25.0556 76.0457 26.8037 73.5343 27.6778C75.9452 29.0374 75.9452 33.3104 78.6575 33.3104C78.9589 33.3104 79.2603 33.2133 79.2603 33.2133L79.3607 35.0585ZM70.3196 26.1239C72.9315 26.1239 74.9406 24.8614 74.9406 22.5306C74.9406 20.1999 73.4338 19.0345 70.5206 19.0345H67.5069V26.1239H70.3196Z" fill="black"/>
<path d="M82.1735 16.8979H84.7854V35.1556H82.1735V16.8979Z" fill="black"/>
<path d="M104.374 22.8221L101.963 23.2105C101.963 21.4625 100.658 18.8403 97.3425 18.8403C94.1278 18.8403 91.4155 21.3653 91.4155 25.9298C91.4155 30.9798 94.4292 33.0192 97.7443 33.0192C100.155 33.0192 101.963 31.5625 102.968 30.3L104.575 31.8538C103.973 32.6307 101.863 35.2528 97.6438 35.2528C92.3196 35.2528 88.7032 31.8538 88.7032 25.9298C88.7032 20.2971 92.2192 16.6067 97.242 16.6067C102.466 16.7038 104.274 20.4913 104.374 22.8221Z" fill="black"/>
<path d="M118.137 30.5912H110.201L108.493 35.1556H105.781L112.913 16.8979H115.525L122.658 35.1556H119.945L118.137 30.5912ZM117.333 28.4547L114.822 21.8508C114.621 21.3653 114.42 20.6854 114.219 19.9085H114.119C113.918 20.5883 113.717 21.2681 113.516 21.8508L111.005 28.4547H117.333Z" fill="black"/>
<path d="M47.8173 47.0038L44.4018 47.4893C44.4018 45.7413 43.2968 43.4105 40.2831 43.4105C37.3698 43.4105 35.1598 45.7413 35.1598 49.723C35.1598 54.1903 37.8721 56.0355 40.8858 56.0355C43.2968 56.0355 45.0045 54.4816 45.8082 53.4134L47.9178 55.5499C47.1141 56.6182 44.9041 59.0461 40.6849 59.0461C35.1598 59.0461 31.4429 55.5499 31.4429 49.723C31.4429 44.0903 35.0593 40.3999 40.1826 40.3999C45.8082 40.3999 47.8173 44.1874 47.8173 47.0038Z" fill="#EA0029"/>
<path d="M54.5479 43.4106V48.0721H62.0822V50.7914H54.5479V55.8414H63.1872V58.7548H50.9315V40.5942H63.1872V43.5077H54.5479V43.4106Z" fill="#EA0029"/>
<path d="M83.4794 49.723C83.4794 55.4528 79.7625 59.0461 74.4383 59.0461C69.1141 59.0461 65.3972 55.4528 65.3972 49.723C65.3972 43.9932 69.2146 40.3999 74.4383 40.3999C79.7625 40.3999 83.4794 43.9932 83.4794 49.723ZM79.863 49.723C79.863 45.8384 77.5525 43.4105 74.4383 43.4105C71.3242 43.4105 69.0137 45.7413 69.0137 49.723C69.0137 53.6076 71.3242 56.0355 74.4383 56.0355C77.5525 55.9384 79.863 53.6076 79.863 49.723Z" fill="#EA0029"/>
<path d="M35.3607 66.4268V72.2537H42.895V74.3903H35.3607V82.548H32.7488V64.2903H44.1004V66.4268H35.3607Z" fill="black"/>
<path d="M63.6895 73.4193C63.6895 79.1491 59.9726 82.7423 54.8493 82.7423C49.726 82.7423 46.0091 79.1491 46.0091 73.4193C46.0091 67.6895 49.726 64.0962 54.8493 64.0962C60.0731 64.0962 63.6895 67.6895 63.6895 73.4193ZM61.0776 73.4193C61.0776 69.0491 58.4657 66.3298 54.8493 66.3298C51.2329 66.3298 48.621 69.0491 48.621 73.4193C48.621 77.7895 51.2329 80.5087 54.8493 80.5087C58.5662 80.5087 61.0776 77.7895 61.0776 73.4193Z" fill="black"/>
<path d="M81.8722 82.548C81.8722 82.548 81.169 82.6451 80.3653 82.6451C75.0411 82.6451 76.6484 75.4586 71.726 75.4586H70.2192V82.548H67.6073V64.2903H73.3333C77.7534 64.2903 80.2648 66.0384 80.2648 69.923C80.2648 72.448 78.5571 74.1961 76.0457 75.0701C78.4566 76.4297 78.4566 80.7028 81.1689 80.7028C81.4703 80.7028 81.7717 80.6057 81.7717 80.6057L81.8722 82.548ZM72.9315 73.5162C75.5434 73.5162 77.5525 72.2537 77.5525 69.923C77.5525 67.5922 76.0457 66.4268 73.1324 66.4268H70.1187V73.5162H72.9315Z" fill="black"/>
<path d="M99.5525 64.2903V75.4586C99.5525 79.8287 96.5388 82.6451 92.0183 82.6451C87.4977 82.6451 84.484 79.7316 84.484 75.4586V64.2903H87.0959V75.4586C87.0959 78.6634 89.105 80.5086 92.0183 80.5086C94.9315 80.5086 96.9406 78.6634 96.9406 75.5557V64.2903H99.5525Z" fill="black"/>
<path d="M123.461 82.548H120.849L120.95 71.3797C120.95 70.6028 121.05 69.1461 121.05 69.0489H120.95C120.849 69.3403 120.447 70.6028 120.247 71.0884L114.721 82.548H113.114L107.489 70.797C107.087 69.923 106.886 69.0489 106.886 68.9518H106.785C106.785 69.0489 106.886 70.5057 106.886 71.2826L106.986 82.4509H104.374V64.2903H107.187L112.913 76.4297C113.215 77.2066 113.817 78.4691 114.018 78.9547H114.119C114.219 78.4691 114.822 77.1095 115.224 76.4297L120.95 64.2903H123.662L123.461 82.548Z" fill="black"/>
<path d="M135.069 30.4941L136.174 31.271C137.781 29.1345 138.785 26.998 139.79 24.8614C141.196 21.8509 142.603 18.9374 145.416 16.2182C148.228 13.4989 151.242 12.1393 154.356 10.7797C157.269 9.5172 160.283 8.15758 162.995 5.7297L162.091 4.75854C159.479 7.08931 156.667 8.35181 153.753 9.61431C150.639 10.9739 147.324 12.4307 144.311 15.3441C141.297 18.2576 139.79 21.3653 138.384 24.473C137.479 26.4153 136.575 28.4547 135.069 30.4941Z" fill="black"/>
<path d="M166.311 6.3125C163.498 9.03173 159.881 10.8769 156.667 12.2365C153.553 13.5962 150.237 15.0529 147.224 17.9663C144.21 20.8798 142.703 23.9875 141.297 27.0952C139.89 30.1058 138.484 33.0192 135.671 35.7385L136.676 36.7096C139.689 33.7962 141.196 30.6885 142.603 27.6779C144.009 24.6673 145.416 21.7538 148.228 18.9375C151.041 16.2183 154.055 14.8587 157.169 13.499C160.283 12.1394 164.201 10.1971 167.215 7.28365L166.311 6.3125Z" fill="black"/>
<path d="M137.781 39.1373L138.685 40.1085C138.986 39.9142 139.187 39.6229 139.489 39.4286C142.502 36.5152 144.009 33.4075 145.416 30.2998C146.822 27.2892 148.228 24.3758 151.041 21.6565C153.854 18.9373 156.868 17.5777 159.982 16.2181C162.895 14.8585 166.009 13.596 168.822 10.9738L167.817 10.0027C165.105 12.4306 162.292 13.6931 159.279 15.0527C156.164 16.4123 152.95 17.869 149.836 20.7825C146.822 23.696 145.315 26.8036 143.909 29.9113C142.502 32.9219 141.096 35.8354 138.283 38.5546C138.283 38.6517 137.982 38.9431 137.781 39.1373Z" fill="black"/>
<path d="M139.69 42.6335L140.594 43.7017C141.196 43.2162 141.799 42.7306 142.301 42.1479C145.315 39.2344 146.822 36.1267 148.228 33.019C149.635 30.0085 151.041 27.095 153.854 24.3758C156.667 21.6565 159.68 20.2969 162.795 18.9373C165.909 17.5777 169.224 16.121 172.237 13.2075C172.539 12.9162 172.84 12.6248 173.142 12.2363L172.037 11.3623C171.735 11.6537 171.434 11.945 171.233 12.2363C168.42 14.9556 165.406 16.3152 162.292 17.6748C159.178 19.0344 155.863 20.4912 152.849 23.4046C149.836 26.3181 148.329 29.4258 146.922 32.4363C145.516 35.544 144.11 38.3604 141.297 41.1767C140.795 41.6623 140.292 42.1479 139.69 42.6335Z" fill="black"/>
<path d="M142.603 45.3527L143.507 46.421C144.11 45.9354 144.712 45.4498 145.215 44.9642C148.228 42.0508 149.735 38.9431 151.142 35.8354C152.548 32.8248 153.954 29.9114 156.767 27.1921C159.58 24.4729 162.594 23.1133 165.708 21.7537C168.822 20.394 172.037 18.9373 175.151 16.0239C176.658 14.5671 177.863 13.0133 178.968 11.1681L177.763 10.4883C176.758 12.3335 175.553 13.7902 174.247 15.0527C171.434 17.7719 168.42 19.1316 165.306 20.4912C162.192 21.8508 158.977 23.3075 155.863 26.221C152.749 29.1344 151.342 32.2421 149.936 35.3498C148.53 38.3604 147.123 41.2739 144.311 43.9931C143.708 44.3815 143.105 44.8671 142.603 45.3527Z" fill="black"/>
<path d="M146.521 47.1008L147.425 48.072C147.626 47.8777 147.726 47.7806 147.927 47.5864C150.941 44.6729 152.448 41.5652 153.854 38.4575C155.26 35.447 156.667 32.5335 159.479 29.8143C162.292 27.095 165.306 25.7354 168.42 24.3758C171.534 23.0162 174.749 21.5595 177.863 18.646C180.073 16.5095 181.781 13.7902 182.785 11.945L181.379 11.4595C180.475 13.2075 178.968 15.6354 176.858 17.5777C174.046 20.297 171.032 21.6566 167.918 23.0162C164.804 24.3758 161.589 25.8325 158.475 28.746C155.461 31.6595 153.954 34.7672 152.548 37.7777C151.142 40.7883 149.735 43.7018 146.922 46.5181C146.822 46.8095 146.721 47.0037 146.521 47.1008Z" fill="black"/>
<path d="M152.347 46.421L153.452 47.198C154.858 45.2556 155.763 43.2162 156.767 41.2739C158.174 38.2633 159.58 35.3499 162.393 32.6306C165.205 29.9114 168.219 28.5518 171.333 27.1922C174.448 25.8326 177.662 24.3758 180.776 21.4624C183.79 18.5489 185.196 15.5383 186.703 12.5278L185.397 11.9451C183.991 14.9556 182.584 17.772 179.772 20.4912C176.959 23.2105 173.945 24.5701 170.831 25.9297C167.717 27.2893 164.502 28.746 161.388 31.6595C158.274 34.573 156.868 37.6806 155.461 40.7883C154.557 42.7306 153.653 44.5758 152.347 46.421Z" fill="black"/>
<path d="M157.47 45.2556L158.676 45.8383C158.977 45.2556 159.279 44.673 159.58 44.0903C160.986 41.0797 162.393 38.1662 165.205 35.447C168.018 32.7278 171.032 31.3681 174.146 30.0085C177.26 28.6489 180.475 27.1922 183.589 24.2787C186.603 21.3653 188.11 18.2576 189.516 15.247C189.918 14.373 190.32 13.4989 190.822 12.5278L189.616 11.9451C189.114 12.6249 188.712 13.596 188.311 14.4701C186.904 17.4806 185.498 20.3941 182.685 23.1133C179.872 25.8326 176.858 27.1922 173.744 28.5518C170.63 29.9114 167.416 31.3681 164.301 34.2816C161.288 37.1951 159.781 40.3028 158.374 43.3133L158.274 43.4105C157.973 44.0903 157.772 44.673 157.47 45.2556Z" fill="black"/>
<path d="M191.927 15.4412C191.626 16.121 191.425 16.5094 191.123 17.1892C189.717 20.1998 188.311 23.1133 185.498 25.8325C182.685 28.5517 179.671 29.9114 176.557 31.271C173.443 32.6306 170.228 34.0873 167.114 37.0008C164.1 39.9142 162.594 43.0219 161.187 46.1296C160.986 46.6152 160.685 47.1008 160.484 47.5864L161.79 48.169C161.991 47.6835 162.192 47.1979 162.493 46.8094C164 43.7017 165.306 40.7883 168.219 38.069C171.132 35.3498 174.046 33.9902 177.16 32.6306C180.274 31.271 183.489 29.8142 186.603 26.9008C189.616 23.9873 191.123 20.8796 192.53 17.7719C192.731 17.2864 193.132 16.6065 193.333 16.121L191.927 15.4412Z" fill="black"/>
<path d="M164.402 48.0721L165.708 48.6548C167.014 45.8385 168.42 43.3135 170.932 40.8856C173.744 38.1663 176.758 36.8067 179.872 35.4471C182.986 34.0875 186.201 32.6308 189.315 29.7173C192.228 26.901 193.735 23.7933 195.142 20.8798L193.836 20.2971C192.429 23.3077 191.023 26.124 188.31 28.7462C185.498 31.4654 182.484 32.825 179.37 34.1846C176.256 35.5442 173.041 37.001 169.927 39.9144C167.215 42.4394 165.708 45.1587 164.402 48.0721Z" fill="black"/>
<path d="M164.804 55.5498L166.009 56.2296C166.813 54.87 167.416 53.6075 168.018 52.2479C169.425 49.1402 170.831 46.3238 173.644 43.5075C176.457 40.7882 179.47 39.4286 182.584 38.069C185.699 36.7094 188.913 35.2527 192.027 32.3392C194.74 29.7171 196.146 27.095 197.553 24.0844L196.347 23.5017C194.941 26.3181 193.635 28.9402 191.123 31.3681C188.311 34.0873 185.297 35.4469 182.183 36.8065C179.068 38.1661 175.854 39.6229 172.74 42.5363C169.726 45.4498 168.219 48.5575 166.813 51.6652C166.21 52.9277 165.607 54.1902 164.804 55.5498Z" fill="black"/>
<path d="M167.717 58.1719L168.922 58.8517C169.626 57.5892 170.228 56.2296 170.831 54.9671C172.338 51.8594 173.644 49.0431 176.457 46.2267C179.269 43.5075 182.283 42.1479 185.397 40.7883C188.511 39.4286 191.726 37.9719 194.84 35.0585C196.448 33.5046 197.753 31.7565 198.959 29.5229L197.753 28.9402C196.548 31.0767 195.342 32.6306 193.836 34.0873C191.023 36.8065 188.009 38.1661 184.895 39.5258C181.781 40.8854 178.466 42.3421 175.452 45.2556C172.438 48.169 170.932 51.2767 169.525 54.2873C169.023 55.6469 168.42 56.9094 167.717 58.1719Z" fill="black"/>
<path d="M169.023 63.319L170.128 64.096C171.735 61.9594 172.74 59.8229 173.744 57.6863C175.151 54.6758 176.557 51.7623 179.37 49.0431C182.183 46.3238 185.196 44.9642 188.311 43.6046C191.425 42.245 194.639 40.7883 197.753 37.8748C199.361 36.321 200.767 34.5729 201.973 32.2421L200.767 31.6594C199.562 33.796 198.356 35.4469 196.749 37.0008C193.936 39.72 190.922 41.0796 187.808 42.4392C184.694 43.7988 181.479 45.2556 178.365 48.169C175.352 51.0825 173.845 54.1902 172.438 57.2979C171.434 59.2402 170.429 61.2796 169.023 63.319Z" fill="black"/>
<path d="M203.379 34.6702C202.274 36.6125 201.069 38.1663 199.662 39.623C196.849 42.3423 193.836 43.7019 190.721 45.0615C187.607 46.4211 184.393 47.8779 181.279 50.7913C178.265 53.7048 176.758 56.8125 175.352 59.823C173.945 62.8336 172.539 65.7471 169.726 68.5634C169.626 68.6605 169.425 68.8548 169.324 68.9519L170.228 69.923C170.429 69.8259 170.53 69.6317 170.731 69.4375C173.744 66.524 175.251 63.4163 176.658 60.3086C178.064 57.298 179.47 54.3846 182.283 51.6654C185.096 48.9461 188.11 47.5865 191.224 46.2269C194.338 44.8673 197.653 43.4106 200.667 40.4971C202.073 39.1375 203.479 37.3894 204.584 35.4471L203.379 34.6702Z" fill="black"/>
<path d="M168.521 74.2931L169.224 75.4585C170.831 74.4873 172.237 73.5162 173.443 72.2537C176.457 69.3402 177.963 66.2325 179.37 63.1248C180.776 60.1143 182.183 57.2008 184.995 54.4816C187.808 51.7623 190.822 50.4027 193.936 49.0431C197.05 47.6835 200.265 46.2268 203.379 43.3133C204.484 42.245 205.489 40.9825 206.393 39.6229L205.187 38.9431C204.384 40.2056 203.379 41.371 202.374 42.4393C199.562 45.1585 196.548 46.5181 193.434 47.8777C190.32 49.2373 187.105 50.6941 183.991 53.6075C180.977 56.521 179.47 59.6287 178.064 62.7364C176.658 65.747 175.251 68.6604 172.438 71.3797C171.233 72.3508 170.027 73.4191 168.521 74.2931Z" fill="black"/>
<path d="M169.927 77.7893L170.53 78.9547C172.74 77.7893 174.548 76.5268 176.155 74.9729C179.169 72.0595 180.676 68.9518 182.082 65.9412C183.489 62.9306 184.895 60.0172 187.708 57.2008C190.521 54.4816 193.534 53.122 196.648 51.7623C199.763 50.4027 202.977 48.946 206.091 46.0325C208.402 43.7989 209.607 41.7595 210.612 39.72L209.406 38.9431C208.402 40.7883 207.196 42.9248 204.986 45.0614C202.174 47.7806 199.16 49.1402 196.046 50.4998C192.932 51.8595 189.616 53.3162 186.603 56.2297C183.589 59.1431 182.082 62.2508 180.676 65.2614C179.269 68.272 177.863 71.1854 175.05 74.0018C173.744 75.4585 172.137 76.6239 169.927 77.7893Z" fill="black"/>
<path d="M211.717 43.022C210.813 44.6729 209.607 46.2268 208.1 47.7806C205.288 50.4999 202.274 51.8595 199.16 53.2191C196.046 54.5787 192.831 56.0354 189.717 58.9489C186.703 61.8624 185.196 64.97 183.79 68.0777C182.384 71.0883 180.977 74.0018 178.164 76.721C175.653 79.1489 173.041 80.5085 169.927 81.8681L170.53 83.1306C173.644 81.771 176.457 80.3143 179.169 77.6922C182.183 74.7787 183.69 71.671 185.096 68.5633C186.502 65.5527 187.909 62.6393 190.721 59.9201C193.534 57.2008 196.548 55.8412 199.662 54.4816C202.776 53.122 205.991 51.6652 209.105 48.7518C210.612 47.2951 211.717 45.7412 212.621 44.2845L211.717 43.022Z" fill="black"/>
<path d="M171.233 85.2672L171.836 86.5297L172.539 86.2383C175.653 84.8787 178.868 83.422 181.881 80.5085C184.895 77.5951 186.402 74.4874 187.808 71.3797C189.215 68.3691 190.621 65.4556 193.434 62.7364C196.247 60.0172 199.26 58.6576 202.374 57.2979H202.475C202.776 57.2008 203.078 57.0066 203.479 56.9095L202.877 55.647C202.575 55.7441 202.374 55.9383 202.073 56.0354L201.872 56.1325C198.758 57.4922 195.543 58.9489 192.429 61.8624C189.416 64.7758 187.909 67.8835 186.502 70.9912C185.096 74.0018 183.689 76.9152 180.877 79.6345C178.064 82.3537 175.05 83.7133 171.936 85.0729L171.233 85.2672Z" fill="black"/>
<path d="M172.74 88.5691L173.342 89.7344C173.945 89.4431 174.548 89.1518 175.151 88.8604L175.352 88.7633C178.466 87.4037 181.68 85.9469 184.795 83.0335C187.808 80.12 189.315 77.0123 190.721 73.9046C192.128 70.8941 193.534 67.9806 196.347 65.2614C198.356 63.3191 200.466 62.0566 202.174 61.2796L201.571 60.1143C199.763 60.9883 197.553 62.2508 195.342 64.3873C192.329 67.3008 190.822 70.4085 189.416 73.4191C188.009 76.5268 186.603 79.3431 183.79 82.1594C180.977 84.9758 177.963 86.2383 174.849 87.5979C174.046 87.9864 173.443 88.2777 172.74 88.5691Z" fill="black"/>
<path d="M174.648 91.7739L175.251 92.9393C176.155 92.4537 177.16 92.0652 178.164 91.5796C181.279 90.22 184.594 88.7633 187.607 85.8498C190.621 82.9364 192.128 79.8287 193.534 76.721C194.941 73.7104 196.347 70.7969 199.16 68.0777C199.863 67.3979 200.667 66.7181 201.571 66.1354L200.767 65.0671C199.863 65.7469 199.059 66.4268 198.256 67.2037C195.242 70.1171 193.735 73.2248 192.329 76.3325C190.922 79.3431 189.516 82.2566 186.703 84.9758C183.89 87.695 180.877 89.0546 177.763 90.4143C176.658 90.8027 175.653 91.2883 174.648 91.7739Z" fill="black"/>
<path d="M175.954 95.2701L176.658 96.4355C178.064 95.6586 179.571 94.9788 180.977 94.3961C184.091 93.0365 187.306 91.5797 190.42 88.6663C193.434 85.7528 194.941 82.6451 196.347 79.6345C197.753 76.5269 199.16 73.7105 201.973 70.8942C202.274 70.6028 202.676 70.2144 203.078 69.923L202.174 68.8547C201.772 69.2432 201.37 69.5345 200.968 69.923C197.954 72.8365 196.447 75.9442 195.041 78.9547C193.635 82.0624 192.228 84.8788 189.416 87.6951C186.603 90.4144 183.589 91.774 180.475 93.1336C178.968 93.8134 177.461 94.4932 175.954 95.2701Z" fill="black"/>
<path d="M181.58 96.6297L182.183 97.8922C182.685 97.6009 183.288 97.4066 183.79 97.2124C185.498 96.4355 187.105 95.7557 188.813 94.7845L188.11 93.6191C186.502 94.4932 184.995 95.2701 183.288 95.9499C182.685 96.1441 182.183 96.3384 181.58 96.6297Z" fill="black"/>
<path d="M133.662 25.25L134.968 25.9298C135.571 24.7644 135.872 24.0846 136.073 23.599C136.274 23.2105 136.374 22.8221 136.676 22.3365L137.078 21.5596C138.484 18.7432 139.79 16.1211 142.301 13.6932C144.913 11.1682 148.429 9.42016 151.744 7.96343L151.142 6.70093C148.429 7.86631 144.311 9.80862 141.297 12.7221C138.384 15.5384 136.877 18.549 135.37 21.7538L135.269 21.948C134.868 23.0163 134.667 23.5019 133.662 25.25Z" fill="black"/>
</svg>
