<svg width="252" height="88" viewBox="0 0 252 88" fill="none" xmlns="http://www.w3.org/2000/svg">
<path id="Vector" d="M5.63534 7.56962H9.55655V5.40949H5.63534V3.2185H10.169V0.981229H3.15373V11.6996H5.63534V7.56962ZM19.026 9.28743H13.784V7.23017H18.4547V5.07004H13.784V3.2185H18.8934V0.981229H11.3069V11.6996H19.026V9.28743ZM24.1766 9.75032C23.1208 9.75032 22.4262 9.34915 22.3759 8.08907H19.8943C19.8943 10.8355 21.8412 11.9156 24.0303 11.9156C26.1234 11.9156 28.1755 11.0412 28.1755 8.31537C28.1755 6.38155 26.8044 5.6615 25.4334 5.22948C24.0623 4.79745 22.6912 4.64316 22.6912 3.82025C22.6912 3.11564 23.3585 2.90477 23.8932 2.90477C24.6518 2.90477 25.4653 3.2185 25.4242 4.1957H27.9058C27.9058 1.77842 25.9863 0.739502 24.0897 0.739502C22.3028 0.739502 20.2096 1.65498 20.2096 4.00026C20.2096 5.96495 21.6355 6.65413 22.9974 7.08616C24.3594 7.51818 25.7396 7.70334 25.7396 8.62911C25.6939 9.4623 24.9215 9.7606 24.1766 9.7606V9.75032ZM31.5711 11.6996H34.0481V3.38309H36.8908V0.981229H28.7239V3.38309H31.5711V11.6996ZM40.4647 0.981229H37.9693V11.6996H40.451L40.4647 0.981229ZM47.0412 11.6996L50.1215 0.981229H47.5347L45.6655 8.95312H45.6381L43.7735 0.981229H41.1685L44.1711 11.6996H47.0412ZM51.7301 11.6996L52.3243 9.80175H55.6468L56.2501 11.6996H58.8368L55.272 0.981229H52.7539L49.1937 11.6996H51.7301ZM53.965 3.95398H53.9924L55.0481 7.70848H52.8864L53.965 3.95398ZM66.4644 9.28743H62.0222V0.981229H59.5406V11.6996H66.4644V9.28743ZM72.9723 0.970944H71.7064V11.6996H72.9723V0.970944ZM76.2949 3.11564H76.3223L81.2946 11.6996H82.6657V0.981229H81.4637V9.67317H81.4363L76.4091 0.981229H75.0609V11.6996H76.2629L76.2949 3.11564ZM86.8977 11.715H88.1636V2.18473H91.3399V0.981229H83.7214V2.18473H86.8977V11.715ZM99.0086 10.5115H93.6615V6.80843H98.6065V5.5895H93.6615V2.18473H98.9675V0.981229H92.391V11.6996H99.0086V10.5115ZM101.81 7.13759H104.904C106.129 7.13759 106.357 8.02221 106.49 9.07142C106.623 10.1206 106.49 11.2778 106.837 11.715H108.25C107.719 10.9795 107.793 9.80689 107.692 8.75769C107.591 7.70848 107.372 6.793 106.266 6.55127V6.52041C107.409 6.16039 107.916 5.09576 107.916 3.80482C107.916 2.09215 106.81 0.99666 105.023 0.99666H100.544V11.6996H101.81V7.13759ZM101.81 2.20016H104.954C106.143 2.20016 106.65 2.97677 106.65 4.03112C106.65 5.57407 105.635 5.93409 104.452 5.93409H101.81V2.20016ZM110.864 3.11564H110.891L115.868 11.715H117.239V0.981229H116.042V9.67317H116.014L110.987 0.981229H109.643V11.6996H110.841L110.864 3.11564ZM120.548 8.49024H124.574L125.616 11.715H127.015L123.295 0.981229H121.896L118.176 11.6996H119.483L120.548 8.49024ZM122.563 2.28759H122.591L124.177 7.28674H120.95L122.563 2.28759ZM128.875 11.715H130.145V2.18473H133.317V0.981229H125.717V2.18473H128.888L128.875 11.715ZM135.693 0.99666H134.423V11.6996H135.693V0.99666ZM141.854 11.9722C144.88 11.9722 146.424 9.26686 146.424 6.35583C146.424 3.4448 144.889 0.744644 141.854 0.744644C138.819 0.744644 137.284 3.4448 137.284 6.35583C137.284 9.26686 138.829 11.9567 141.854 11.9567V11.9722ZM141.854 1.943C144.176 1.943 145.149 4.1957 145.149 6.35583C145.149 8.51596 144.176 10.7687 141.854 10.7687C139.532 10.7687 138.559 8.51596 138.559 6.35583C138.559 4.1957 139.532 1.92757 141.854 1.92757V1.943ZM149.166 3.11564H149.194L154.171 11.715H155.542V0.981229H154.34V9.67317H154.317L149.29 0.981229H147.946V11.6996H149.144L149.166 3.11564ZM158.851 8.49024H162.877L163.919 11.715H165.317L161.597 0.99666H160.199L156.474 11.715H157.781L158.851 8.49024ZM160.866 2.28759H160.893L162.479 7.28674H159.248L160.866 2.28759ZM172.561 10.5166H167.534V0.981229H166.268V11.6996H172.575L172.561 10.5166ZM184.832 6.10896C184.832 2.65276 183.196 1.0018 180.262 1.0018H176.99V11.6996H180.262C183.415 11.6996 184.814 9.67317 184.814 6.08839L184.832 6.10896ZM178.26 2.2053H180.394C182.725 2.2053 183.566 3.74825 183.566 6.31983C183.566 10.2698 181.235 10.5372 180.367 10.5372H178.26V2.2053ZM190.239 11.9773C192.61 11.9773 193.982 10.5475 193.982 7.86278V0.981229H192.716V7.82677C192.716 9.71946 191.838 10.7532 190.239 10.7532C188.557 10.7532 187.597 9.7246 187.597 7.82677V0.981229H186.326V7.82677C186.308 10.6761 187.766 11.9567 190.22 11.9567L190.239 11.9773ZM201.664 7.59019H205.585V5.43006H201.664V3.2185H206.152V0.981229H199.141V11.6996H201.623L201.664 7.59019ZM209.813 1.0018H207.331V11.6996H209.813V1.0018ZM218.414 9.28743H213.971V0.981229H211.49V11.6996H218.414V9.28743ZM221.988 3.55281H222.015L224.017 11.6893H225.909L227.911 3.55281H227.938V11.6996H230.269V0.981229H226.613L224.976 8.12508H224.949L223.308 0.981229H219.652V11.6996H221.988V3.55281ZM243.344 6.0781C243.344 2.6219 241.708 0.970944 238.774 0.970944H235.506V11.6996H238.774C241.946 11.6996 243.344 9.67317 243.344 6.08839V6.0781ZM236.772 2.18473H238.906C241.237 2.18473 242.078 3.72768 242.078 6.29925C242.078 10.2492 239.747 10.5166 238.879 10.5166H236.772V2.18473ZM251.506 10.4961H246.159V6.793H251.109V5.5895H246.159V2.18473H251.47V0.981229H244.893V11.6996H251.506V10.4961ZM9.76677 23.0608H9.8399L15.5069 46.097H20.8723L26.5439 23.0608H26.6216V46.097H33.2301V15.7524H22.8878L18.2262 35.9804H18.1485L13.5052 15.7472H3.15373V46.0919H9.76677V23.0608ZM45.4142 15.7472L35.3324 46.0919H42.5395L44.2488 40.6607H53.6542L55.336 46.097H62.6483L52.5619 15.7524L45.4142 15.7472ZM45.8712 34.7769L48.9378 24.1614H49.0155L51.9952 34.7924L45.8712 34.7769ZM71.7018 35.0289H77.0307C80.3166 35.0289 80.7691 38.1766 80.9564 41.2367C81.0341 42.0854 81.1484 45.0632 81.7516 46.0816H88.6983C87.7569 44.9758 87.6426 40.5116 87.5695 39.236C87.341 36.3456 86.5092 32.7351 83.6391 31.9688V31.9173C86.4726 30.683 87.8711 27.5816 87.8711 24.3055C87.8711 18.1851 83.1867 15.7627 78.4246 15.7627H64.682V46.1073H71.7064L71.7018 35.0289ZM71.7018 22.063H77.2957C79.2563 22.063 80.8422 23.0917 80.8422 25.3392C80.8422 27.5868 79.7133 28.9086 77.5974 28.9086H71.7018V22.063ZM98.9721 35.0289H104.301C107.587 35.0289 108.039 38.1766 108.227 41.2367C108.3 42.0854 108.414 45.0632 109.022 46.0816H115.969C115.027 44.9758 114.913 40.5116 114.835 39.236C114.611 36.3456 113.779 32.7351 110.909 31.9688V31.9173C113.743 30.683 115.137 27.5816 115.137 24.3055C115.137 18.1851 110.457 15.7627 105.695 15.7627H91.9523V46.1073H98.9767L98.9721 35.0289ZM98.9721 22.063H104.561C106.527 22.063 108.112 23.0917 108.112 25.3392C108.112 27.5868 106.979 28.9086 104.868 28.9086H98.9721V22.063ZM116.462 46.0816H123.674L125.379 40.6607H134.784L136.448 46.1022H143.76L133.673 15.7575H126.549L116.462 46.0816ZM130.058 24.146H130.132L133.116 34.7769H127.001L130.058 24.146ZM145.826 15.7472V46.0919H152.85V36.7467L155.72 33.3471L162.973 46.097H171.697L160.45 27.6897L170.418 15.7472H161.712L152.836 27.3965V15.7472H145.826ZM195.682 39.2978H180.824V33.5168H194.046V27.3965H180.824V22.0836H195.293V15.7472H173.813V46.0919H195.682V39.2978ZM212.303 46.7348C219.159 46.7348 224.236 42.1419 224.615 34.3243H217.577C217.312 37.8062 215.425 39.9304 212.139 39.9304C207.605 39.9304 205.869 35.4301 205.869 30.9196C205.869 26.409 207.605 21.9087 212.139 21.9087C215.082 21.9087 217.198 23.5288 217.577 26.589H224.602C224.414 19.2754 218.103 15.1095 212.29 15.1095C204.132 15.1095 198.84 22.1453 198.84 30.9196C198.84 39.6938 204.132 46.7348 212.29 46.7348H212.303ZM228.299 15.7472V46.0919H235.323V33.594H244.541V46.0919H251.566V15.7472H244.541V26.7999H235.287V15.7472H228.299ZM61.5926 58.2297C61.3198 57.5427 60.9301 56.9224 60.4455 56.4039L59.1201 59.0115C59.4302 59.345 59.695 59.728 59.9062 60.1481C60.241 60.6439 60.451 61.2319 60.514 61.8505C60.514 61.9328 60.514 61.9585 60.4683 61.9225H53.1423C52.6853 61.9225 52.3014 61.5162 51.9724 60.7087C51.7039 60.0667 51.5799 59.3602 51.6113 58.6515C51.5869 58.6041 51.5713 58.5516 51.5656 58.4972C51.5199 58.4457 51.4925 58.42 51.4742 58.42C51.3114 58.3445 51.1383 58.3011 50.9624 58.2914C50.7801 58.2919 50.5983 58.3091 50.4185 58.3429C49.4417 58.5897 48.5504 59.1529 47.8546 59.963C47.6493 60.1994 47.4823 60.4744 47.3611 60.7756C47.224 61.0945 47.0914 61.3979 46.9543 61.6859C46.8949 61.8557 46.8172 61.9379 46.7304 61.9379H42.0048C41.8006 61.9171 41.5976 61.8828 41.397 61.8351C41.0651 61.7421 40.7531 61.5755 40.4792 61.345C40.2053 61.1145 39.975 60.8247 39.802 60.4927C39.4394 59.855 39.0708 59.2138 38.696 58.5692C38.6366 58.6566 38.4127 59.0423 38.0196 59.7367C37.7734 60.13 37.5694 60.5547 37.4118 61.0019C37.4118 61.0019 37.6312 61.3516 38.0653 61.9997C38.3853 62.3899 38.6104 62.8664 38.7189 63.3832C38.7189 63.8563 38.1933 64.5318 37.1421 65.4096C36.5955 65.8824 36.0163 66.3055 35.41 66.6748C34.9772 66.9226 34.5015 67.0613 34.0161 67.0811C33.5006 67.0524 33.0002 66.8753 32.5628 66.5668C32.3027 66.4268 32.0574 66.2543 31.8316 66.0525C31.7585 66.0525 31.7219 66.0679 31.7219 66.0988V66.4331C32.3471 67.1193 33.0781 67.6718 33.879 68.0634C34.6311 68.5561 35.4677 68.863 36.3332 68.9635C37.0964 68.9635 37.8734 68.3875 38.6503 67.2405C39.1958 66.4112 39.6486 65.5096 39.9985 64.5558L40.1128 64.4067C40.3822 64.5782 40.6817 64.6818 40.9902 64.7101H45.9626C46.0723 64.7067 46.1796 64.6725 46.2746 64.6105C46.3696 64.5485 46.4493 64.4607 46.5064 64.3552C46.5846 64.1784 46.6444 63.992 46.6847 63.7998C46.7213 63.5862 46.8154 63.3904 46.9543 63.2392L51.3188 65.9753C51.5369 65.8422 51.7007 65.6191 51.7759 65.353C51.8396 65.1117 51.954 64.8912 52.1095 64.7101H61.4692C61.9201 64.7101 62.1456 63.4346 62.1456 60.8836C62.1584 60.4604 62.1354 60.0367 62.077 59.6184C61.9612 59.1306 61.7859 58.6633 61.556 58.2297H61.5926ZM50.3088 61.9225C50.0667 61.8546 49.8376 61.7378 49.6324 61.5779C49.5685 61.5419 49.3171 61.3568 48.8692 61.0225C48.9791 60.9244 49.1099 60.8605 49.2485 60.8373C49.4114 60.7994 49.5763 60.7737 49.7421 60.7602C49.8864 60.7646 50.0237 60.8308 50.126 60.9453C50.1815 60.9968 50.2266 61.0611 50.2581 61.1339C50.2897 61.2066 50.3069 61.2861 50.3088 61.367V61.9225ZM58.5352 69.4624C58.87 69.297 59.1848 69.0844 59.472 68.8298C60.0205 68.408 60.2901 68.1149 60.2901 67.9452C60.2901 67.7754 60.0159 67.4874 59.4583 66.9165C59.1788 66.5894 58.8605 66.3073 58.5123 66.0782C58.1679 66.2978 57.8589 66.5812 57.5983 66.9165C57.0818 67.472 56.8213 67.8011 56.8213 67.904C56.8213 68.0069 57.0818 68.2846 57.5983 68.7526C57.8692 69.0519 58.1868 69.2925 58.5352 69.4624ZM11.8508 54.7015C12.1337 54.5904 12.3934 54.4154 12.614 54.1872C12.8548 53.9858 13.0608 53.7366 13.2218 53.4517C12.4129 52.5362 11.9513 52.0837 11.8508 52.0837C11.597 52.2537 11.3622 52.4575 11.1515 52.6905C10.7311 53.0986 10.5209 53.3609 10.5209 53.4774C10.5209 53.5443 10.7265 53.7655 11.1287 54.1461C11.3417 54.3702 11.5875 54.5512 11.8553 54.6809L11.8508 54.7015ZM100.581 53.2614C100.143 53.6702 99.7298 54.11 99.3423 54.5781C99.2052 54.7478 99.1412 54.8661 99.1412 54.933C99.1412 54.9998 99.388 55.3238 99.8861 55.797C100.384 56.2702 100.7 56.5016 100.85 56.5016C101.009 56.47 101.157 56.392 101.28 56.2753C102.089 55.6993 102.546 55.2467 102.651 54.8815C102.139 54.3106 101.664 53.8169 101.234 53.4157C101.123 53.2844 100.983 53.1885 100.828 53.138C100.735 53.1471 100.649 53.1905 100.581 53.2614ZM179.421 55.2673C178.964 55.7507 178.703 56.0542 178.703 56.1725C178.703 56.2908 178.946 56.5325 179.43 56.9851C179.682 57.2687 179.975 57.5003 180.298 57.6691C180.627 57.5105 180.935 57.3011 181.212 57.0468C181.738 56.6353 181.999 56.3422 181.999 56.1725C181.999 56.0027 181.436 55.3753 180.312 54.4289C179.992 54.68 179.691 54.9604 179.412 55.2673H179.421ZM30.6571 64.9107C31.5459 63.7039 32.0109 62.1724 31.9641 60.6059C31.885 58.2043 31.6667 55.8111 31.3106 53.4414C30.6228 54.4556 30.0629 55.5719 29.647 56.7588L30.6571 64.9107ZM90.7321 67.2405C90.5538 67.2405 90.0237 66.8702 89.1371 66.1245C88.8811 66.4691 88.6206 66.8188 88.351 67.1531C88.1633 67.3775 88.0089 67.6346 87.894 67.9143C88.4405 68.3986 89.0472 68.7902 89.6946 69.0766C89.9536 68.6603 90.261 68.2849 90.6087 67.9606C91.1368 68.4081 91.7106 68.7828 92.3179 69.0766C92.4093 69.0766 92.6241 68.8195 92.9714 68.3155C93.1817 67.9914 93.3965 67.6726 93.6204 67.3537L91.7923 66.0576C91.0702 66.8497 90.7229 67.2405 90.7366 67.2405H90.7321ZM27.1335 61.5471C27.0492 61.2973 26.927 61.0658 26.7724 60.863C26.2665 60.2117 25.7262 59.5951 25.1546 59.0166C24.9124 58.7852 24.3594 58.276 23.4865 57.4994C23.098 57.1497 22.7872 56.8771 22.5724 56.6919C24.7052 55.9684 26.3032 55.4301 27.3665 55.077C27.6377 54.0483 27.8555 53.114 28.0201 52.2739L20.9043 54.6295C20.5021 56.6045 20.301 57.7034 20.301 57.9263C20.301 58.0549 20.5661 58.4406 21.1008 59.0886C21.6355 59.7367 21.9783 60.0504 22.1428 60.0504C22.2243 60.0401 22.3021 60.0069 22.3692 59.9539C22.4363 59.9008 22.4905 59.8297 22.5267 59.747L25.0449 61.9225H17.4584C16.8231 61.9225 16.4438 61.4956 16.3067 60.6316C16.2656 59.9424 16.2107 59.2481 16.1513 58.5743C15.956 58.6907 15.7871 58.8561 15.6577 59.0578C15.4155 59.3972 15.155 59.8087 14.8671 60.2973C14.7769 60.4226 14.7115 60.5681 14.6751 60.7242C14.73 60.9768 14.7727 61.2326 14.8031 61.4905C14.8031 61.6396 14.8031 61.7374 14.7574 61.7785C14.7353 61.7979 14.7175 61.823 14.7056 61.8516C14.6937 61.8802 14.688 61.9115 14.6889 61.9431C14.1206 61.8778 13.5479 61.8778 12.9796 61.9431C13.1293 61.2193 13.2271 60.4832 13.2721 59.7418C13.3315 59.0321 13.3635 58.6669 13.3635 58.6515C13.3729 58.5524 13.3484 58.4531 13.295 58.3737C12.6221 59.0597 12.0715 59.8836 11.6725 60.8013C11.634 60.9587 11.6262 61.1236 11.6497 61.2848C11.6613 61.4044 11.6493 61.5254 11.6145 61.6392C11.5797 61.753 11.5231 61.8568 11.4486 61.9431H10.0318C9.57983 61.5461 9.1905 61.0662 8.88017 60.5236C8.62881 60.0093 8.3683 59.5464 8.09409 59.0578L6.67734 61.5625C7.19239 62.4103 7.62305 63.3192 7.96156 64.2729C8.07521 64.5734 8.15801 64.8874 8.20835 65.209C8.20835 65.5124 7.75133 65.7593 6.76874 65.9445C6.17436 66.0663 5.57215 66.1334 4.96809 66.1451C3.01814 66.1451 2.04318 65.3701 2.04318 63.8203C2.07435 63.0733 2.30889 62.3551 2.71499 61.7631C3.17201 61.0327 3.39138 60.683 3.39138 60.6984V60.2664H3.14459C2.92065 60.2664 2.53219 60.7807 1.97463 61.7631C1.68156 62.2476 1.4189 62.7546 1.18855 63.2803C0.932624 64.0209 0.731533 64.597 0.64927 65.0033C0.5614 65.3737 0.522896 65.7567 0.535015 66.1399C0.519941 66.6298 0.639584 67.113 0.877604 67.5235C1.11562 67.9341 1.46042 68.2519 1.86494 68.4338C2.62255 68.8358 3.45463 69.028 4.2917 68.9944C4.66231 69.0076 5.03281 68.9643 5.39312 68.8658C6.03097 68.7036 6.65609 68.4834 7.26232 68.2075C7.91564 67.8972 8.43884 67.3176 8.72477 66.5874C8.8041 66.3626 8.89412 66.1429 8.99442 65.929C9.11325 65.6256 9.25948 65.2193 9.42401 64.7152H11.2521C11.2932 64.7152 11.3801 64.6381 11.508 64.4838C11.636 64.3295 11.7228 64.2575 11.7685 64.2575C11.8142 64.2575 12.0062 64.4118 12.2255 64.7152H15.2419C15.4521 64.3912 15.6029 64.1598 15.6989 64.0055C15.8451 64.3398 15.9411 64.5815 15.9914 64.7152H26.4296C26.7361 63.7412 26.976 62.7423 27.1472 61.7271C27.1527 61.6666 27.148 61.6056 27.1335 61.5471ZM14.6614 60.719C14.6614 60.719 14.6614 60.6933 14.6614 60.6882C14.6614 60.683 14.6614 60.719 14.6614 60.719ZM8.87559 56.0079C9.48169 56.4616 10.1318 56.8361 10.8133 57.1239C10.9851 57.0187 11.1396 56.8813 11.2704 56.7176C11.6147 56.3473 11.8157 56.1365 11.8736 56.085L13.7885 57.1754C14.075 56.9228 14.3453 56.6478 14.5975 56.3525C14.8325 56.1138 15.0235 55.8255 15.1596 55.5038L13.2264 54.2849C13.135 54.3706 12.9019 54.6072 12.5272 54.9947C12.3845 55.1677 12.2178 55.3136 12.0336 55.4267C11.9292 55.4073 11.8296 55.3635 11.7411 55.2981C11.2427 55.029 10.7683 54.707 10.3243 54.3364C9.80083 54.851 9.31766 55.4154 8.88017 56.0233L8.87559 56.0079ZM146.328 66.073C146.879 64.739 147.176 63.2903 147.201 61.8196C147.201 61.6208 147.183 61.3173 147.146 60.9093C147.099 60.4572 146.997 60.0144 146.845 59.5927C146.617 58.8626 146.229 58.2095 145.716 57.6948C145.581 57.5555 145.406 57.4752 145.222 57.4685C145.106 57.4978 144.993 57.5392 144.884 57.592C144.482 57.7634 144.017 58.3292 143.49 59.2892C143.273 59.7242 143.078 60.1724 142.905 60.6316C142.8 60.935 142.727 61.1459 142.681 61.3053C142.622 61.5899 142.599 61.8826 142.613 62.1745C142.613 63.6283 143.115 64.3552 144.121 64.3552C144.49 64.3914 144.86 64.2941 145.177 64.0775C145.39 63.886 145.572 63.6546 145.716 63.3935C145.821 63.1054 145.935 62.8174 146.054 62.5294C146.101 62.6216 146.125 62.7266 146.123 62.8329C146.11 63.0677 146.064 63.2987 145.986 63.5169C145.664 64.2468 145.213 64.8945 144.66 65.4199C144.188 65.9476 143.658 66.4056 143.083 66.7828C142.684 67.0456 142.263 67.266 141.827 67.4411C140.672 67.6126 139.787 67.7068 139.171 67.724C139.038 67.7186 138.905 67.7541 138.787 67.8269V68.0017C138.978 68.1842 139.194 68.3302 139.427 68.4338L139.967 68.5829C140.723 68.7354 141.486 68.8452 142.252 68.9121C142.882 68.9789 143.248 69.0149 143.358 69.0149C144.586 68.9978 145.576 68.0172 146.328 66.073ZM144.614 61.7734C144.444 61.77 144.276 61.7262 144.121 61.6448C143.942 61.5304 143.769 61.4032 143.604 61.2642C143.673 60.9844 143.823 60.7383 144.029 60.5647C144.168 60.4254 144.339 60.3342 144.523 60.3024C144.684 60.3284 144.834 60.4091 144.953 60.5339C145.087 60.6451 145.191 60.7954 145.255 60.9685C145.318 61.1416 145.339 61.331 145.314 61.5162C145.087 61.624 144.854 61.71 144.614 61.7734ZM205.087 60.1738C204.092 59.7432 203.128 59.2274 202.203 58.6309C201.368 58.0446 200.42 57.6919 199.438 57.6023C199.113 57.6247 198.795 57.7222 198.504 57.8885C198.213 58.0548 197.955 58.2865 197.747 58.5692C197.229 59.2062 196.762 59.8948 196.353 60.6264V60.827C196.867 60.4196 197.48 60.2021 198.108 60.2047C198.656 60.2957 199.184 60.5034 199.662 60.8167C200.037 61.0327 200.416 61.2642 200.809 61.5008C200.245 61.8262 199.614 61.9737 198.981 61.9277H189.809C189.041 61.9277 188.644 61.7939 188.616 61.5213C188.257 57.6057 188.008 54.5952 187.871 52.49C187.709 52.6642 187.556 52.8497 187.414 53.0454C186.71 54.0432 186.354 54.6244 186.354 54.7941L187.145 64.7204H198.753C199.203 64.6273 199.636 64.4537 200.037 64.2061L201.116 63.5992C201.452 63.4126 201.808 63.2761 202.176 63.1929C202.437 63.1693 202.7 63.1607 202.962 63.1672L206.161 63.4243L207.669 60.9916C206.557 60.6659 205.696 60.3933 205.087 60.1738ZM201.349 69.2669C201.472 69.2669 201.774 68.9584 202.263 68.3412C202.567 68.0144 202.822 67.634 203.017 67.2148L200.901 65.8622C200.536 66.1353 200.203 66.4584 199.909 66.8239C199.429 67.364 199.192 67.688 199.192 67.7857C199.192 67.8834 199.525 68.1612 200.202 68.5983C200.561 68.8678 200.946 69.092 201.349 69.2669ZM184.083 64.8953C184.178 64.5558 184.252 64.2884 184.293 64.1032C184.456 63.6059 184.564 63.0876 184.613 62.5603C184.594 61.7878 184.438 61.0273 184.156 60.323C183.884 59.563 183.49 58.8657 182.995 58.2657L181.711 60.6573C182.478 61.7567 183.024 63.0308 183.31 64.3912C182.86 64.7401 182.343 64.9672 181.802 65.0547C181.147 65.2458 180.476 65.3561 179.8 65.3839C179.182 65.4066 178.57 65.2489 178.022 64.9261C177.709 64.7454 177.449 64.4668 177.273 64.1238C177.097 63.7807 177.013 63.3879 177.031 62.9923C177.064 62.3539 177.235 61.7342 177.529 61.187C177.858 60.5013 178.022 60.1361 178.022 60.0915C178.022 60.0247 178.022 59.9835 178 59.9784C177.997 59.9719 177.996 59.9649 177.996 59.9578C177.996 59.9507 177.997 59.9437 178 59.9373H177.817C177.311 60.239 176.821 61.019 176.345 62.2774C175.928 63.275 175.687 64.3546 175.637 65.4559C175.637 67.2628 176.822 68.1663 179.192 68.1663C180.14 68.1068 181.07 67.8505 181.935 67.4103C182.509 67.2063 183.033 66.8541 183.466 66.3816C183.712 65.9092 183.919 65.4115 184.083 64.8953ZM233.413 64.3552C233.489 64.1812 233.543 63.9959 233.573 63.8049C233.614 63.5929 233.707 63.3984 233.843 63.2443L238.212 65.9805C238.321 65.9156 238.417 65.8273 238.495 65.7205C238.574 65.6137 238.633 65.4906 238.669 65.3581C238.736 65.1173 238.852 64.8972 239.007 64.7152H245.574C245.648 64.7093 245.72 64.6832 245.782 64.6393C245.845 64.5954 245.898 64.535 245.935 64.4632L246.004 64.3604C246.26 63.3317 246.424 62.5808 246.502 62.1025C246.528 61.843 246.542 61.582 246.543 61.3208L246.274 57.9006L248.028 55.329C247.526 55.0731 247.044 54.7685 246.589 54.4186C246.351 54.2644 246.132 54.1049 245.89 53.9352C245.673 53.7991 245.498 53.5931 245.387 53.3437C245.309 53.087 245.267 52.8179 245.264 52.5465C245.232 52.4591 245.186 52.418 245.126 52.418C244.841 52.7966 244.585 53.2027 244.363 53.6317C244.167 54.0226 243.979 54.4186 243.796 54.825C243.691 55 243.601 55.186 243.527 55.3804C243.527 55.4473 243.646 55.581 243.879 55.7867C244.112 55.9925 244.226 56.1159 244.226 56.1622C244.407 56.8511 244.543 57.5542 244.633 58.2657C244.72 58.9909 244.807 59.7007 244.889 60.395C244.949 60.8141 244.99 61.2364 245.012 61.6602C245.012 61.8299 245.012 61.9122 244.948 61.9122H240.049C239.592 61.9122 239.208 61.5059 238.884 60.6984C238.615 60.0564 238.491 59.3499 238.523 58.6412C238.498 58.5938 238.482 58.5413 238.477 58.4869C238.431 58.4355 238.399 58.4097 238.385 58.4097C238.221 58.3342 238.046 58.2907 237.869 58.2812C237.687 58.2819 237.505 58.2991 237.325 58.3326C236.349 58.5805 235.458 59.1435 234.761 59.9527C234.559 60.1921 234.392 60.4664 234.268 60.7653C234.135 61.0842 233.998 61.3876 233.861 61.6756C233.801 61.8454 233.728 61.9277 233.637 61.9277H227.239C227.482 61.2693 227.729 60.611 227.979 59.9527C228.227 59.3182 228.382 58.6424 228.436 57.952V56.5119H228.235C227.65 56.5119 226.919 56.9645 226.05 57.88C225.385 58.5395 224.809 59.3054 224.341 60.1533C224.04 60.9145 223.816 61.5059 223.665 61.9277H216.942C216.738 61.9065 216.535 61.8721 216.334 61.8248C216.003 61.7313 215.691 61.5644 215.417 61.334C215.143 61.1035 214.913 60.814 214.739 60.4824C214.378 59.8447 214.013 59.2018 213.633 58.5589C213.574 58.6463 213.35 59.0321 212.961 59.7264C212.713 60.1182 212.509 60.5432 212.354 60.9916C212.354 60.9916 212.568 61.3413 213.003 61.9894C213.325 62.3779 213.55 62.8551 213.656 63.3729C213.656 63.8461 213.132 64.5215 212.084 65.3993C211.536 65.8698 210.957 66.2927 210.352 66.6645C209.919 66.9113 209.443 67.0499 208.958 67.0708C208.442 67.0435 207.942 66.8663 207.505 66.5565C207.244 66.4185 206.998 66.2458 206.773 66.0422C206.696 66.0422 206.659 66.0422 206.659 66.0885V66.4228C207.286 67.1088 208.019 67.6612 208.821 68.0532C209.572 68.5439 210.407 68.849 211.271 68.9481C212.038 68.9481 212.812 68.3737 213.592 67.2251C214.144 66.3959 214.604 65.4944 214.963 64.5404L215.077 64.3912C215.347 64.5628 215.646 64.6663 215.955 64.6947H222.975C223.034 64.6947 223.203 65.0033 223.491 65.6307C223.752 66.256 224.067 66.8504 224.433 67.4051C224.584 67.6666 224.786 67.8864 225.024 68.0484C225.261 68.2104 225.527 68.3105 225.804 68.3412C227.022 68.3412 227.967 67.1411 228.637 64.741H232.846C232.963 64.7393 233.077 64.7027 233.176 64.6349C233.276 64.567 233.358 64.4705 233.413 64.3552ZM236.155 60.8373C236.318 60.7988 236.483 60.773 236.649 60.7602C236.793 60.7656 236.93 60.8317 237.033 60.9453C237.088 60.9971 237.132 61.0615 237.163 61.1343C237.193 61.2071 237.21 61.2865 237.211 61.367V61.9225C236.969 61.8546 236.74 61.7378 236.534 61.5779C236.475 61.5419 236.219 61.3568 235.771 61.0225C235.884 60.9225 236.018 60.8585 236.16 60.8373H236.155ZM227.106 65.6204H226.59C226.241 65.6104 225.9 65.4969 225.603 65.2913C225.193 65.0156 224.872 64.5991 224.689 64.1032H224.935C225.45 64.1939 225.95 64.3671 226.421 64.6175C226.738 64.7747 226.988 65.0668 227.115 65.4301L227.106 65.6204ZM226.412 60.683C225.954 60.9196 225.465 61.1459 224.972 61.367H224.812C225.433 60.368 226.185 59.4803 227.042 58.7338C227.093 58.9219 227.115 59.1185 227.106 59.3149C227.131 59.5953 227.078 59.8773 226.954 60.1223C226.831 60.3673 226.643 60.5632 226.416 60.683H226.412ZM249.678 56.7588L250.688 64.9107C251.577 63.7039 252.042 62.1724 251.995 60.6059C251.916 58.2043 251.698 55.8111 251.342 53.4414C250.657 54.4571 250.099 55.5732 249.683 56.7588H249.678ZM167.177 54.4289C166.94 54.2746 166.72 54.1152 166.483 53.9455C166.265 53.8094 166.089 53.6035 165.975 53.354C165.897 53.0956 165.855 52.8248 165.852 52.5517C165.82 52.4694 165.779 52.4282 165.715 52.4282C165.429 52.8069 165.174 53.213 164.952 53.642C164.755 54.0329 164.568 54.4289 164.39 54.8352C164.282 55.0089 164.192 55.1951 164.12 55.3907C164.12 55.4576 164.234 55.5913 164.467 55.797C164.7 56.0027 164.815 56.1262 164.815 56.1725C164.997 56.8613 165.133 57.5644 165.221 58.276C165.313 59.0012 165.395 59.711 165.482 60.4053C165.569 61.0996 165.605 61.5162 165.605 61.6705C165.605 61.8248 165.605 61.9225 165.537 61.9225H158.681V61.8711C158.301 61.8298 157.919 61.8298 157.539 61.8711C157.461 61.8402 157.37 61.7116 157.265 61.4802C157.094 61.1628 156.974 60.8149 156.908 60.4516C156.573 58.9669 156.243 57.5063 155.917 56.0696C155.752 55.4267 155.615 54.9484 155.51 54.6244L154.235 57.4685L155.185 61.6859C155.185 61.7888 155.185 61.8608 155.185 61.8917H150.716C150.487 61.8917 150.377 61.6088 150.377 61.0327C150.377 61.0327 150.377 60.8167 150.409 60.4516C150.441 60.0864 150.441 59.7984 150.441 59.6132C150.217 59.6132 150.03 59.8652 149.884 60.323C149.625 61.2364 149.45 62.1774 149.363 63.1312C149.303 63.6043 149.271 63.8821 149.271 63.9695C149.281 64.141 149.328 64.3072 149.409 64.4529C149.44 64.5324 149.49 64.6005 149.554 64.6495C149.618 64.6986 149.692 64.7267 149.77 64.7307H154.509C154.561 64.7254 154.61 64.7064 154.654 64.6751C154.698 64.6437 154.734 64.6011 154.76 64.5507C154.894 64.3068 155.014 64.0544 155.121 63.7946C155.201 63.5658 155.332 63.364 155.501 63.2083C155.697 63.7638 155.83 64.1804 155.907 64.4529C155.967 64.633 156.058 64.7307 156.177 64.7307H166.167C166.241 64.7247 166.313 64.6987 166.376 64.6548C166.438 64.6109 166.491 64.5504 166.528 64.4787C166.546 64.4404 166.569 64.4057 166.597 64.3758C166.848 63.3472 167.013 62.5911 167.091 62.118C167.118 61.8585 167.133 61.5975 167.136 61.3362L166.867 57.916L168.622 55.3444C168.119 55.0877 167.637 54.7814 167.182 54.4289H167.177ZM138.385 61.3156L138.116 57.8954L139.871 55.3238C139.368 55.068 138.887 54.7634 138.431 54.4135C138.193 54.2592 137.974 54.0998 137.732 53.93C137.516 53.7925 137.342 53.5868 137.229 53.3386C137.151 53.0818 137.109 52.8128 137.106 52.5414C137.074 52.454 137.028 52.4128 136.969 52.4128C136.683 52.7914 136.428 53.1976 136.205 53.6266C136.009 54.0175 135.821 54.4135 135.639 54.8198C135.533 54.9949 135.443 55.1809 135.369 55.3753C135.369 55.4421 135.488 55.5759 135.721 55.7816C135.954 55.9873 136.068 56.1107 136.068 56.157C136.252 56.8454 136.388 57.5486 136.475 58.2606C136.566 58.9875 136.653 59.6972 136.735 60.3899C136.818 61.0825 136.859 61.5042 136.859 61.6551C136.859 61.8248 136.831 61.9071 136.79 61.9071H124.972C124.464 62.6517 124.02 63.449 123.646 64.2884L125.648 64.4889C126.331 64.5587 126.961 64.9283 127.403 65.5176C126.44 65.8789 125.443 66.1169 124.433 66.2273C124.19 66.2273 123.953 66.2531 123.71 66.2531C123.381 66.2642 123.051 66.247 122.723 66.2016C121.431 65.8587 120.644 65.2604 120.361 64.4067C120.321 64.1902 120.306 63.9691 120.315 63.7483C120.328 63.0565 120.506 62.3814 120.831 61.7939C121.103 61.2957 121.42 60.8304 121.777 60.4053C122.125 59.963 122.298 59.6955 122.298 59.5927C122.301 59.5525 122.291 59.5126 122.271 59.4795C122.266 59.4576 122.266 59.4346 122.271 59.4127H122.024C121.086 60.1691 120.306 61.1467 119.739 62.2774C119.156 63.2563 118.815 64.3926 118.752 65.569C118.72 66.1917 118.879 66.8078 119.201 67.3149C119.524 67.8221 119.991 68.1897 120.525 68.3566C120.75 68.4675 120.984 68.552 121.224 68.6086C121.27 68.6086 121.384 68.5058 121.562 68.3052C121.741 68.1046 121.951 67.8989 122.02 67.8474L122.787 68.5675C122.882 68.6869 123.006 68.7712 123.144 68.8092C123.397 68.8329 123.652 68.7906 123.889 68.6858C124.14 68.4263 124.374 68.1461 124.588 67.8474C125.2 68.1869 125.479 68.3617 125.42 68.3617C125.681 68.3063 125.937 68.2219 126.183 68.1097C126.571 67.9784 126.948 67.8062 127.307 67.5954C127.69 67.3175 128.02 66.9554 128.276 66.5308C128.502 66.109 128.735 65.6873 128.975 65.2656C129.09 65.0135 129.181 64.8284 129.245 64.7101H137.416C137.49 64.7041 137.562 64.6781 137.625 64.6342C137.687 64.5903 137.74 64.5299 137.777 64.4581C137.796 64.4215 137.817 64.387 137.841 64.3552C138.097 63.3266 138.262 62.5757 138.34 62.0974C138.366 61.8378 138.38 61.5769 138.381 61.3156H138.385ZM125.516 69.0921C125.22 68.8868 124.915 68.6997 124.602 68.5315C124.406 68.6806 124.225 68.8531 124.062 69.0458C123.895 69.2458 123.705 69.4189 123.496 69.5601C123.229 69.464 122.979 69.318 122.755 69.1281L121.969 68.5469C121.142 69.5447 120.712 70.0899 120.685 70.1413C121.142 70.4499 121.576 70.7173 122.015 70.9539C122.143 71.047 122.288 71.1067 122.44 71.1288C122.715 70.79 123.022 70.4849 123.354 70.2184L125.063 71.2471C125.494 70.8664 125.887 70.4335 126.233 69.9561C126.293 69.8779 126.347 69.7935 126.393 69.7041C126.126 69.4544 125.829 69.2484 125.511 69.0921H125.516ZM115.763 61.3156L115.493 57.8954L117.248 55.3238C116.745 55.0691 116.264 54.7645 115.809 54.4135C115.566 54.2592 115.352 54.0998 115.109 53.93C114.894 53.7907 114.718 53.5856 114.602 53.3386C114.528 53.0806 114.487 52.8123 114.479 52.5414C114.451 52.454 114.406 52.4128 114.346 52.4128C114.058 52.7899 113.8 53.1962 113.578 53.6266C113.386 54.0175 113.199 54.4135 113.016 54.8198C112.911 54.9949 112.821 55.1809 112.747 55.3753C112.747 55.4421 112.865 55.5759 113.099 55.7816C113.332 55.9873 113.446 56.1107 113.446 56.157C113.628 56.8456 113.762 57.5488 113.848 58.2606C113.939 58.9875 114.026 59.6972 114.109 60.3899C114.191 61.0825 114.232 61.5042 114.232 61.6551C114.232 61.8248 114.209 61.9071 114.168 61.9071H112.052C111.705 61.9071 111.526 61.7631 111.513 61.4802L111.056 55.7302C111.032 55.2546 110.986 54.7808 110.919 54.3106C110.8 53.3334 110.713 52.706 110.649 52.4385L110.562 52.3614L108.83 55.0975L109.744 61.9071H103.812C104.141 61.3002 104.388 60.8373 104.552 60.5184C104.647 60.2525 104.686 59.9657 104.667 59.6801C104.669 59.356 104.635 59.0329 104.566 58.7183C104.492 58.4 104.381 58.094 104.237 57.808C104.149 57.5768 103.985 57.3925 103.78 57.2937C103.621 57.2181 103.45 57.1779 103.277 57.1754C102.965 57.1902 102.657 57.2596 102.363 57.3811C101.297 57.82 100.134 58.9 98.8761 60.6213C98.698 61.0193 98.5762 61.4462 98.5151 61.8865C98.1028 61.9195 97.6889 61.9195 97.2765 61.8865H94.0774C93.7808 61.8977 93.4889 61.8002 93.2457 61.6088C93.1168 61.5122 93.0119 61.3803 92.9408 61.2256C92.8696 61.0708 92.8346 60.8983 92.8389 60.7242C92.8389 60.6882 92.8709 60.3847 92.9303 59.8087C92.9743 59.4991 92.9972 59.1861 92.9989 58.8726V57.5354C92.421 58.1755 91.8863 58.8631 91.3993 59.5927C91.3403 59.9178 91.3325 60.252 91.3764 60.5801C91.3455 61.0166 91.2782 61.4488 91.1754 61.8711H84.7771C84.4344 61.8711 84.2561 61.7271 84.2424 61.4442L83.7854 55.6941C83.763 55.2187 83.7188 54.7449 83.6528 54.2746C83.5294 53.2974 83.438 52.67 83.3832 52.4025L83.2918 52.3254L81.5597 55.0615L82.4737 61.8711H74.156C74.0843 61.8299 74.0168 61.7799 73.9549 61.7219C73.6067 61.3866 73.3487 60.9483 73.21 60.4567C72.8929 59.458 72.6737 58.4232 72.5564 57.3708C71.254 57.6383 70.3171 57.8851 69.7458 58.0549C68.4722 58.4937 67.6252 58.9566 67.2048 59.4435C66.9484 59.8501 66.7148 60.2744 66.5055 60.7139C65.9663 61.7425 65.7042 62.5345 65.7195 63.09L66.6335 70.2904C67.0677 69.3081 67.4059 68.4749 67.6435 67.7806C67.7437 67.5079 67.7979 67.2166 67.8035 66.9217L67.2642 61.7528C67.2632 61.6765 67.2772 61.601 67.3053 61.5316C67.4866 61.2512 67.7507 61.0524 68.0503 60.971C68.303 60.8593 68.567 60.7833 68.8363 60.7447C68.882 60.7447 68.914 60.7447 68.9277 60.7447L68.1325 62.6066C68.7602 63.4877 70.0429 64.3312 71.9806 65.137C72.5351 65.4456 72.9693 65.7079 73.2831 65.9239L74.1149 64.7101H81.6968L82.5057 63.0386C82.5834 63.9489 82.6291 64.4118 82.6428 64.4324C82.6464 64.5092 82.6767 64.5814 82.7271 64.6334C82.7776 64.6854 82.8441 64.7129 82.9125 64.7101H90.6498C90.9026 64.1536 91.1818 63.6128 91.4861 63.09C91.7558 64.1649 92.2859 64.7101 93.0811 64.7101H108.967L109.781 63.0386C109.854 63.9489 109.895 64.4118 109.913 64.4324C109.917 64.5092 109.947 64.5814 109.997 64.6334C110.048 64.6854 110.114 64.7129 110.183 64.7101H114.794C114.867 64.7033 114.938 64.6769 115 64.633C115.062 64.5892 115.113 64.5292 115.151 64.4581C115.17 64.421 115.193 64.3865 115.219 64.3552C115.475 63.3266 115.64 62.5757 115.713 62.0974C115.742 61.8381 115.758 61.577 115.758 61.3156H115.763ZM70.1754 60.9865C70.3753 60.7918 70.6043 60.6385 70.8518 60.5339C71.094 60.4464 71.3316 60.3538 71.5739 60.251C71.6629 60.8884 71.799 61.5163 71.9806 62.1282C71.3322 61.8464 70.7228 61.4619 70.1708 60.9865H70.1754ZM102.13 61.8968C102.011 61.9223 101.89 61.931 101.769 61.9225C101.648 61.9334 101.527 61.9248 101.408 61.8968C100.949 61.8261 100.527 61.5768 100.215 61.1922C100.183 61.0225 100.169 60.9556 100.169 60.9865C100.169 60.8682 100.261 60.7344 100.444 60.5801C100.674 60.4251 100.913 60.2893 101.161 60.1738C101.351 60.0699 101.558 60.0104 101.769 59.999C101.814 59.9967 101.86 60.0055 101.902 60.0247C102.106 60.0918 102.292 60.2136 102.445 60.3796C102.567 60.5137 102.663 60.6739 102.728 60.8506C102.793 61.0273 102.826 61.2169 102.825 61.4082C102.82 61.6705 102.587 61.8299 102.126 61.8968H102.13ZM172.589 60.6059C172.509 58.2043 172.291 55.8111 171.935 53.4414C171.25 54.4575 170.69 55.5735 170.271 56.7588L171.281 64.9107C172.171 63.7044 172.634 62.1721 172.584 60.6059H172.589ZM157.132 81.4614L154.002 84.6398L160.761 87.9057V86.3114L156.387 84.1718L159.033 81.3174L156.607 78.7458L160.761 76.8428V75.2639L154.116 78.2932L157.132 81.4614ZM165.573 76.1485V76.4982C165.595 77.5268 164.863 79.5104 163.38 82.4489V75.7627H162.054V87.6897H163.38C163.375 87.002 163.412 86.3147 163.489 85.6325C163.525 84.8973 163.68 84.1756 163.946 83.5032L165.55 80.4636V87.7H166.885V75.7627H165.55C165.569 75.8656 165.573 75.9891 165.573 76.1485ZM150.766 77.3314H152.553V75.7885H149.445V80.9316H147.617V75.7885H144.523V77.3314H146.296V86.1159H144.468V87.6949H147.654V82.4489H149.482V87.6949H152.621V86.1159H150.793L150.766 77.3314ZM168.649 87.6949H176.039V86.1159H169.979V77.3726H176.039V75.7885H168.649V87.6949ZM117.879 82.1814C117.574 82.1756 117.271 82.2438 116.991 82.3813C116.711 82.5189 116.46 82.7226 116.256 82.9786C115.833 83.5219 115.599 84.2203 115.599 84.9433C115.599 85.6663 115.833 86.3646 116.256 86.908C116.464 87.1611 116.715 87.3631 116.995 87.5013C117.275 87.6395 117.578 87.7108 117.883 87.7108C118.189 87.7108 118.492 87.6395 118.772 87.5013C119.052 87.3631 119.303 87.1611 119.51 86.908C119.934 86.3646 120.168 85.6663 120.168 84.9433C120.168 84.2203 119.934 83.5219 119.51 82.9786C119.306 82.721 119.054 82.5163 118.772 82.3787C118.491 82.241 118.186 82.1738 117.879 82.1814ZM118.761 86.0079C118.652 86.1496 118.516 86.2627 118.363 86.3391C118.211 86.4155 118.046 86.4534 117.879 86.4502C117.716 86.4521 117.554 86.4135 117.405 86.337C117.257 86.2606 117.125 86.1482 117.02 86.0079C116.785 85.7074 116.655 85.3206 116.655 84.9201C116.655 84.5197 116.785 84.1329 117.02 83.8324C117.127 83.6953 117.259 83.5858 117.408 83.5113C117.556 83.4367 117.717 83.3989 117.879 83.4003C118.045 83.3976 118.209 83.4347 118.361 83.5092C118.514 83.5837 118.65 83.6939 118.761 83.8324C118.993 84.1344 119.121 84.5206 119.121 84.9201C119.121 85.3197 118.993 85.7059 118.761 86.0079ZM121.284 87.6897H122.586V75.7627H121.284V87.6897ZM191.125 75.7833H183.237L186.5 81.7288L183.26 87.6897H184.672L187.195 83.0249L189.727 87.6897H191.162L187.926 81.7134L191.125 75.7833ZM185.367 77.0228H189.023L187.195 80.407L185.367 77.0228ZM141.424 76.1485V76.4982C141.449 77.5268 140.718 79.5104 139.231 82.4489V75.7627H137.905V87.6897H139.231C139.227 87.002 139.263 86.3147 139.34 85.6325C139.378 84.8976 139.533 84.1764 139.797 83.5032L141.402 80.4636V87.7H142.736V75.7627H141.402C141.42 75.8656 141.424 75.9891 141.424 76.1485ZM129.588 87.6949H130.89V75.7627H129.588V87.6949ZM197.962 87.6949H205.352V86.1159H199.297V77.3726H205.357V75.7885H197.962V87.6949ZM231.932 82.1866C231.627 82.1801 231.325 82.248 231.046 82.3856C230.766 82.5233 230.517 82.7273 230.314 82.9837C229.891 83.5271 229.657 84.2254 229.657 84.9484C229.657 85.6715 229.891 86.3698 230.314 86.9131C230.517 87.1702 230.766 87.3751 231.045 87.5135C231.325 87.652 231.627 87.7209 231.932 87.7155C232.24 87.7222 232.546 87.654 232.828 87.5155C233.111 87.377 233.363 87.1715 233.568 86.9131C233.992 86.3698 234.226 85.6715 234.226 84.9484C234.226 84.2254 233.992 83.5271 233.568 82.9837C233.363 82.725 233.111 82.5194 232.828 82.3809C232.546 82.2424 232.24 82.1743 231.932 82.1814V82.1866ZM232.819 86.0131C232.709 86.1549 232.572 86.268 232.419 86.3444C232.266 86.4208 232.1 86.4586 231.932 86.4554C231.769 86.4566 231.608 86.4176 231.459 86.3412C231.311 86.2648 231.179 86.1528 231.073 86.0131C230.841 85.7111 230.713 85.3249 230.713 84.9253C230.713 84.5257 230.841 84.1395 231.073 83.8375C231.181 83.7007 231.313 83.5914 231.461 83.5169C231.609 83.4424 231.77 83.4044 231.932 83.4055C232.099 83.4026 232.264 83.4397 232.417 83.5142C232.57 83.5886 232.707 83.6989 232.819 83.8375C233.049 84.1409 233.175 84.5266 233.175 84.9253C233.175 85.324 233.049 85.7097 232.819 86.0131ZM248.508 78.2983C248.563 78.527 248.657 78.741 248.787 78.9275C248.917 79.1139 249.078 79.2691 249.262 79.3835C249.643 79.596 250.083 79.6311 250.487 79.4813C250.905 79.2995 251.246 78.9443 251.438 78.4886C251.64 78.0065 251.679 77.4579 251.548 76.9457C251.436 76.6311 251.257 76.3524 251.026 76.1344C250.796 75.9163 250.521 75.7657 250.227 75.6959C249.595 75.5935 248.953 75.5935 248.321 75.6959C247.202 75.8899 246.171 76.4937 245.387 77.4137C244.421 78.6165 243.901 80.1901 243.934 81.8111C243.897 83.4199 244.41 84.9831 245.369 86.1777C246.016 86.9121 246.823 87.444 247.709 87.7206L248.275 87.88C248.84 88.0002 249.418 88.0227 249.989 87.9469C250.286 87.927 250.573 87.819 250.821 87.6339C251.069 87.4487 251.27 87.1929 251.401 86.8925C251.61 86.3931 251.657 85.8273 251.534 85.293C251.485 85.0315 251.386 84.7851 251.244 84.571C251.102 84.3569 250.92 84.1803 250.711 84.0535C250.274 83.8569 249.789 83.8369 249.34 83.9969C249.132 84.0866 248.943 84.2245 248.786 84.4017C248.628 84.5789 248.506 84.7915 248.426 85.0256C248.284 85.4965 248.237 85.9974 248.289 86.4914C247.545 86.2228 246.889 85.7129 246.401 85.0256C245.711 84.1225 245.347 82.9606 245.382 81.77C245.314 80.6057 245.619 79.4524 246.242 78.5195C246.842 77.7683 247.645 77.2589 248.527 77.0691C248.424 77.4646 248.418 77.8837 248.508 78.2829V78.2983ZM249.381 77.2388C249.459 77.0571 249.597 76.9168 249.765 76.848C249.851 76.8096 249.943 76.7933 250.034 76.8004C250.126 76.8076 250.215 76.8379 250.295 76.8891C250.374 76.9362 250.443 77.0006 250.498 77.0783C250.554 77.1561 250.595 77.2457 250.62 77.3417C250.682 77.5481 250.669 77.7737 250.583 77.9692C250.503 78.1575 250.365 78.3071 250.195 78.3909C250.108 78.4213 250.017 78.432 249.927 78.4223C249.837 78.4126 249.749 78.3827 249.669 78.3343C249.585 78.2906 249.51 78.2257 249.452 78.1445C249.393 78.0634 249.352 77.9682 249.331 77.8663C249.283 77.6517 249.301 77.4252 249.381 77.2234V77.2388ZM249.221 85.6068C249.262 85.5114 249.318 85.426 249.388 85.3554C249.458 85.2848 249.54 85.2304 249.628 85.1953C249.713 85.1542 249.804 85.1356 249.896 85.141C249.988 85.1463 250.078 85.1755 250.158 85.2262C250.242 85.2752 250.316 85.3428 250.376 85.4251C250.435 85.5073 250.48 85.6024 250.505 85.7045C250.538 85.8139 250.55 85.9296 250.542 86.0446C250.533 86.1596 250.504 86.2713 250.455 86.3731C250.383 86.5737 250.243 86.7343 250.067 86.8205C249.985 86.8675 249.894 86.892 249.802 86.892C249.71 86.892 249.619 86.8675 249.537 86.8205C249.453 86.7641 249.38 86.6896 249.322 86.6014C249.264 86.5131 249.222 86.4128 249.198 86.3062C249.159 86.1916 249.14 86.0691 249.144 85.9461C249.148 85.8232 249.174 85.7024 249.221 85.5913V85.6068ZM235.401 75.7627V87.6897H236.923L239.094 83.2152L241.242 87.6897H242.677L239.862 81.59L242.677 75.7627H235.401ZM236.708 85.2827V77.3108H240.552L236.708 85.2827ZM228.281 81.806C228.32 80.2285 227.806 78.6969 226.85 77.5423C226.415 76.9765 225.874 76.5245 225.267 76.218C224.66 75.9116 224.001 75.7579 223.336 75.7679C222.679 75.7617 222.028 75.9163 221.429 76.2209C220.83 76.5255 220.297 76.9728 219.867 77.532C218.954 78.6967 218.453 80.1987 218.459 81.7521C218.466 83.3055 218.98 84.8018 219.904 85.9565C220.686 86.9267 221.762 87.5331 222.921 87.6568C224.08 87.7805 225.239 87.4125 226.169 86.6251L226.992 87.7155H228.45L226.974 85.7559C227.817 84.6589 228.281 83.2566 228.281 81.806ZM226.768 82.958C226.638 83.532 226.385 84.0616 226.032 84.501L223.29 80.9008V82.8192L225.21 85.4833C224.908 85.8896 224.296 86.0954 223.345 86.1108C222.873 86.1091 222.406 85.9923 221.978 85.7686C221.55 85.5449 221.169 85.2195 220.863 84.8147C220.185 83.9699 219.807 82.8733 219.802 81.7347C219.797 80.5961 220.165 79.4954 220.836 78.6429C221.148 78.2278 221.538 77.8945 221.977 77.6662C222.416 77.4379 222.893 77.3201 223.377 77.3211C223.849 77.3087 224.318 77.4176 224.747 77.6395C225.176 77.8614 225.555 78.1905 225.854 78.6018C226.55 79.4647 226.926 80.5946 226.905 81.7597C226.902 82.1622 226.856 82.5628 226.768 82.9529V82.958ZM217.015 81.806C217.057 80.228 216.543 78.6954 215.585 77.5423C215.15 76.9771 214.61 76.5256 214.004 76.2191C213.398 75.9127 212.739 75.7587 212.075 75.7679C211.417 75.7613 210.766 75.9157 210.166 76.2203C209.566 76.5249 209.032 76.9724 208.602 77.532C207.688 78.6967 207.187 80.1987 207.194 81.7521C207.201 83.3055 207.715 84.8018 208.638 85.9565C209.421 86.9267 210.497 87.5331 211.656 87.6568C212.815 87.7805 213.973 87.4125 214.904 86.6251L215.726 87.7155H217.184L215.713 85.7559C216.557 84.6596 217.019 83.2565 217.015 81.806ZM215.503 82.958C215.374 83.5327 215.121 84.0627 214.767 84.501L212.025 80.9008V82.8192L213.944 85.4833C213.642 85.8896 213.03 86.0954 212.079 86.1108C211.608 86.1094 211.142 85.9927 210.714 85.769C210.287 85.5452 209.907 85.2196 209.602 84.8147C208.923 83.9705 208.545 82.8743 208.539 81.7357C208.533 80.5971 208.9 79.496 209.57 78.6429C209.883 78.2278 210.272 77.8945 210.711 77.6662C211.15 77.4379 211.628 77.3201 212.111 77.3211C212.584 77.3083 213.052 77.417 213.482 77.639C213.911 77.8609 214.289 78.1902 214.588 78.6018C215.284 79.4647 215.66 80.5946 215.64 81.7597C215.639 82.1623 215.593 82.5633 215.503 82.9529V82.958ZM87.4507 75.7576C86.7934 75.7511 86.1428 75.9055 85.5438 76.2101C84.9448 76.5147 84.4119 76.9623 83.9819 77.5217C83.0661 78.6848 82.5631 80.1868 82.569 81.7408C82.5749 83.2949 83.0893 84.792 84.0139 85.9462C84.4439 86.4933 84.9733 86.9301 85.5661 87.2274C86.159 87.5246 86.8016 87.6752 87.4507 87.6692C88.1056 87.6808 88.7551 87.5339 89.3551 87.2384C89.9552 86.943 90.4918 86.5058 90.9286 85.9565C91.8674 84.8127 92.3933 83.3158 92.4035 81.7588C92.4136 80.2017 91.9073 78.6963 90.9834 77.5371C90.5445 76.9703 90.0011 76.5179 89.391 76.2114C88.7808 75.905 88.1187 75.7519 87.4507 75.7627V75.7576ZM89.9368 84.789C89.6322 85.1894 89.2555 85.5124 88.8316 85.7367C88.4078 85.961 87.9464 86.0815 87.4781 86.0902C87.0058 86.0885 86.5395 85.9718 86.1111 85.748C85.6828 85.5243 85.3025 85.1989 84.9965 84.7941C84.3176 83.9499 83.939 82.8537 83.9331 81.7151C83.9272 80.5765 84.2944 79.4754 84.9645 78.6223C85.2773 78.2075 85.6666 77.8743 86.1055 77.6461C86.5443 77.4178 87.0221 77.2999 87.5055 77.3006C87.9773 77.2879 88.4455 77.3962 88.8746 77.6171C89.3038 77.8381 89.6826 78.166 89.9825 78.5761C90.6653 79.4231 91.0396 80.5284 91.0312 81.672C91.0227 82.8156 90.632 83.9137 89.9368 84.7478V84.789ZM34.3452 75.7833H26.4571L29.6928 81.7288L26.4571 87.6897H27.8784L30.4011 83.0249L32.933 87.6897H34.368L31.1141 81.7134L34.3452 75.7833ZM28.5822 77.0228H32.2383L30.4103 80.407L28.5822 77.0228ZM22.8603 75.7627C22.3323 75.7674 21.822 75.9776 21.4162 76.3578C21.0104 76.7379 20.734 77.2645 20.6342 77.848C20.5344 78.4315 20.6172 79.0359 20.8685 79.5585C21.1199 80.0811 21.5243 80.4895 22.0131 80.7145C22.5018 80.9394 23.0447 80.9669 23.5494 80.7923C24.0541 80.6178 24.4896 80.2519 24.7817 79.7568C25.0738 79.2618 25.2045 78.6682 25.1517 78.077C25.0989 77.4857 24.8657 76.9333 24.4919 76.5137C24.2805 76.2688 24.0265 76.0758 23.7458 75.9465C23.465 75.8173 23.1636 75.7548 22.8603 75.7627ZM23.7744 79.4247C23.6571 79.5646 23.5153 79.6757 23.358 79.7509C23.2007 79.8261 23.0313 79.8639 22.8603 79.8618C22.6892 79.8655 22.5194 79.8284 22.3618 79.7531C22.2043 79.6778 22.0627 79.5658 21.9463 79.4247C21.7048 79.1256 21.571 78.7359 21.571 78.3318C21.571 77.9276 21.7048 77.538 21.9463 77.2388C22.0618 77.0959 22.2031 76.9825 22.3607 76.9062C22.5184 76.83 22.6888 76.7925 22.8603 76.7965C23.0317 76.7942 23.2016 76.8323 23.3591 76.9085C23.5165 76.9847 23.658 77.0972 23.7744 77.2388C24.0159 77.538 24.1497 77.9276 24.1497 78.3318C24.1497 78.7359 24.0159 79.1256 23.7744 79.4247ZM43.6181 75.7833H35.7437L38.9794 81.7288L35.7437 87.6897H37.1604L39.6877 83.0249L42.2196 87.6897H43.6547L40.4144 81.7134L43.6181 75.7833ZM37.8551 77.0228H41.5112L39.6832 80.407L37.8551 77.0228ZM8.45057 87.6897H9.75306V75.7627H8.45057V87.6897ZM47.2742 82.1814C46.9695 82.176 46.6674 82.2444 46.3882 82.3819C46.1091 82.5195 45.8595 82.723 45.6564 82.9786C45.2325 83.5219 44.9988 84.2203 44.9988 84.9433C44.9988 85.6663 45.2325 86.3646 45.6564 86.908C45.8635 87.1611 46.1151 87.3631 46.3951 87.5013C46.6751 87.6395 46.9776 87.7108 47.2834 87.7108C47.5891 87.7108 47.8916 87.6395 48.1716 87.5013C48.4517 87.3631 48.7032 87.1611 48.9104 86.908C49.3342 86.3646 49.568 85.6663 49.568 84.9433C49.568 84.2203 49.3342 83.5219 48.9104 82.9786C48.7064 82.7228 48.4559 82.5193 48.1761 82.3818C47.8962 82.2442 47.5933 82.1759 47.2879 82.1814H47.2742ZM48.1608 86.0079C48.0505 86.1498 47.9141 86.2628 47.7609 86.3392C47.6078 86.4156 47.4417 86.4535 47.2742 86.4502C47.1111 86.4511 46.9497 86.412 46.8013 86.3356C46.653 86.2592 46.5212 86.1474 46.415 86.0079C46.1852 85.7045 46.0589 85.3188 46.0589 84.9201C46.0589 84.5214 46.1852 84.1358 46.415 83.8324C46.523 83.6961 46.6553 83.5871 46.8035 83.5126C46.9516 83.4382 47.112 83.3999 47.2742 83.4003C47.4408 83.3975 47.606 83.4345 47.7588 83.509C47.9117 83.5835 48.0487 83.6937 48.1608 83.8324C48.3907 84.1358 48.517 84.5214 48.517 84.9201C48.517 85.3188 48.3907 85.7045 48.1608 86.0079ZM22.7964 82.5209C22.4952 82.5135 22.196 82.5764 21.9175 82.7056C21.6391 82.8348 21.3874 83.0276 21.1785 83.2718C20.9646 83.5121 20.796 83.7987 20.6829 84.1142C20.5698 84.4297 20.5145 84.7677 20.5204 85.1079C20.5161 85.4469 20.5723 85.7835 20.6856 86.0977C20.7989 86.4119 20.967 86.6973 21.1801 86.9371C21.3931 87.1768 21.6468 87.3661 21.926 87.4936C22.2051 87.6211 22.5042 87.6843 22.8055 87.6795C23.109 87.6876 23.4108 87.6256 23.6922 87.4973C23.9736 87.3691 24.2287 87.1772 24.4416 86.9337C24.656 86.6969 24.8251 86.4132 24.9382 86.1001C25.0514 85.7869 25.1064 85.451 25.0997 85.113C25.1056 84.7729 25.0503 84.4349 24.9372 84.1194C24.8241 83.8038 24.6556 83.5173 24.4416 83.2769C24.231 83.0306 23.9772 82.8363 23.6964 82.7061C23.4155 82.576 23.1137 82.5129 22.8101 82.5209H22.7964ZM23.7104 86.1777C23.5931 86.318 23.4515 86.4297 23.2942 86.5058C23.137 86.5819 22.9675 86.6207 22.7964 86.62C22.6251 86.6217 22.4553 86.5832 22.298 86.5071C22.1406 86.4309 21.9991 86.3187 21.8823 86.1777C21.6346 85.8857 21.4984 85.4961 21.503 85.0924C21.4948 84.6835 21.6312 84.2876 21.8823 83.9918C21.9983 83.8497 22.1398 83.7368 22.2973 83.6606C22.4548 83.5844 22.6249 83.5465 22.7964 83.5495C22.9677 83.5475 23.1375 83.5858 23.2949 83.6619C23.4523 83.7381 23.5938 83.8505 23.7104 83.9918C23.9598 84.2884 24.0946 84.6842 24.0851 85.0924C24.0996 85.4904 23.9768 85.8793 23.7424 86.1777H23.7104ZM11.3389 87.6897H18.7746V86.1108H12.6963V77.3674H18.7746V75.7833H11.3709L11.3389 87.6897ZM5.06406 82.1814C4.75924 82.175 4.45679 82.2429 4.17752 82.3805C3.89824 82.5181 3.64876 82.7222 3.44622 82.9786C3.02235 83.5219 2.7886 84.2203 2.7886 84.9433C2.7886 85.6663 3.02235 86.3646 3.44622 86.908C3.65338 87.1611 3.90491 87.3631 4.18494 87.5013C4.46498 87.6395 4.76743 87.7108 5.07321 87.7108C5.37898 87.7108 5.68143 87.6395 5.96146 87.5013C6.2415 87.3631 6.49303 87.1611 6.70019 86.908C7.12407 86.3646 7.35781 85.6663 7.35781 84.9433C7.35781 84.2203 7.12407 83.5219 6.70019 82.9786C6.49486 82.7206 6.24227 82.5157 5.95982 82.3781C5.67737 82.2404 5.37177 82.1733 5.06406 82.1814ZM5.94611 86.0079C5.83561 86.1471 5.69941 86.2574 5.54705 86.3312C5.39469 86.4049 5.22985 86.4403 5.06406 86.4348C4.90086 86.436 4.73939 86.397 4.59098 86.3206C4.44256 86.2442 4.31078 86.1322 4.20487 85.9925C3.97237 85.6905 3.84439 85.3043 3.84439 84.9047C3.84439 84.5051 3.97237 84.1189 4.20487 83.8169C4.31242 83.6801 4.44473 83.5708 4.59292 83.4963C4.74112 83.4218 4.90176 83.3838 5.06406 83.3849C5.22998 83.3818 5.39457 83.4187 5.54672 83.4933C5.69888 83.5678 5.83506 83.6782 5.94611 83.8169C6.1786 84.1189 6.30658 84.5051 6.30658 84.9047C6.30658 85.3043 6.1786 85.6905 5.94611 85.9925V86.0079ZM96.2803 82.1814C95.9748 82.1756 95.6719 82.2438 95.3919 82.3813C95.112 82.5189 94.8617 82.7226 94.6578 82.9786C94.234 83.5219 94.0002 84.2203 94.0002 84.9433C94.0002 85.6663 94.234 86.3646 94.6578 86.908C94.865 87.1611 95.1165 87.3631 95.3966 87.5013C95.6766 87.6395 95.979 87.7108 96.2848 87.7108C96.5906 87.7108 96.8931 87.6395 97.1731 87.5013C97.4531 87.3631 97.7047 87.1611 97.9118 86.908C98.3357 86.3646 98.5694 85.6663 98.5694 84.9433C98.5694 84.2203 98.3357 83.5219 97.9118 82.9786C97.7062 82.7196 97.4529 82.5142 97.1695 82.3765C96.8862 82.2388 96.5796 82.1722 96.2711 82.1814H96.2803ZM97.1623 86.0079C97.0529 86.1496 96.9172 86.2627 96.7648 86.3391C96.6125 86.4155 96.4471 86.4534 96.2803 86.4502C96.1164 86.4515 95.9542 86.4126 95.8051 86.3362C95.6559 86.2598 95.5233 86.1478 95.4165 86.0079C95.1866 85.7045 95.0604 85.3188 95.0604 84.9201C95.0604 84.5214 95.1866 84.1358 95.4165 83.8324C95.5251 83.6957 95.6583 83.5865 95.8072 83.512C95.9561 83.4376 96.1173 83.3995 96.2803 83.4003C96.4461 83.3976 96.6106 83.4347 96.7627 83.5092C96.9148 83.5837 97.0511 83.6939 97.1623 83.8324C97.3948 84.1344 97.5228 84.5206 97.5228 84.9201C97.5228 85.3197 97.3948 85.7059 97.1623 86.0079ZM106.129 80.8648H101.038V75.7473H99.7079V82.4334H102.907V87.6795H104.237V82.4334H107.436V75.7473H106.115L106.129 80.8648ZM112.568 76.1485V76.4982C112.587 77.5268 111.854 79.5104 110.37 82.4489V75.7627H109.045V87.6897H110.37C110.366 87.002 110.403 86.3147 110.48 85.6325C110.517 84.8976 110.672 84.1764 110.937 83.5032L112.536 80.4636V87.7H113.875V75.7627H112.536C112.553 75.8906 112.564 76.0194 112.568 76.1485ZM81.121 75.7885H73.2328L76.4731 81.734L73.2328 87.6949H74.6542L77.1769 83.03L79.7088 87.6949H81.1438L77.9081 81.7185L81.121 75.7885ZM75.358 77.028H79.0141L77.186 80.4122L75.358 77.028ZM69.8418 82.1711C69.5369 82.1647 69.2345 82.2326 68.9552 82.3702C68.6759 82.5078 68.4265 82.7119 68.2239 82.9683C67.7973 83.5102 67.5617 84.2091 67.5617 84.933C67.5617 85.657 67.7973 86.3558 68.2239 86.8977C68.4262 87.1548 68.6756 87.3596 68.9548 87.4981C69.2341 87.6366 69.5366 87.7055 69.8418 87.7C70.1497 87.7068 70.4554 87.6386 70.7378 87.5001C71.0201 87.3616 71.2726 87.1561 71.4779 86.8977C71.9018 86.3543 72.1355 85.656 72.1355 84.933C72.1355 84.21 71.9018 83.5117 71.4779 82.9683C71.2715 82.7124 71.0185 82.5096 70.7362 82.3738C70.4538 82.238 70.1487 82.1724 69.8418 82.1814V82.1711ZM70.7238 85.9976C70.6146 86.1396 70.479 86.2529 70.3266 86.3293C70.1741 86.4057 70.0086 86.4435 69.8418 86.4399C69.6785 86.4418 69.5168 86.4032 69.3683 86.3268C69.2198 86.2503 69.0881 86.1379 68.9826 85.9976C68.7501 85.6956 68.6221 85.3094 68.6221 84.9099C68.6221 84.5103 68.7501 84.1241 68.9826 83.8221C69.0899 83.685 69.2222 83.5755 69.3705 83.501C69.5187 83.4264 69.6794 83.3886 69.8418 83.3901C70.0077 83.3869 70.1723 83.4239 70.3244 83.4984C70.4766 83.5729 70.6128 83.6833 70.7238 83.8221C70.9563 84.1241 71.0843 84.5103 71.0843 84.9099C71.0843 85.3094 70.9563 85.6956 70.7238 85.9976ZM55.6148 75.7525C54.9575 75.7453 54.3066 75.8994 53.7076 76.204C53.1085 76.5087 52.5756 76.9566 52.146 77.5166C51.2302 78.6797 50.7272 80.1817 50.7331 81.7357C50.739 83.2897 51.2534 84.7868 52.178 85.9411C52.6081 86.4881 53.1374 86.925 53.7303 87.2222C54.3232 87.5194 54.9658 87.6701 55.6148 87.664C56.2697 87.6757 56.9192 87.5288 57.5193 87.2333C58.1193 86.9378 58.6559 86.5006 59.0927 85.9513C60.0307 84.8046 60.5539 83.3047 60.5599 81.7461C60.5658 80.1875 60.0539 78.6826 59.1247 77.5268C58.6886 76.9636 58.1487 76.514 57.5426 76.2093C56.9364 75.9047 56.2786 75.7523 55.6148 75.7627V75.7525ZM58.101 84.7839C57.7954 85.1844 57.4179 85.5074 56.9933 85.7317C56.5687 85.956 56.1067 86.0765 55.6377 86.0851C55.1661 86.0833 54.7004 85.9665 54.2728 85.7428C53.8452 85.519 53.4658 85.1936 53.1606 84.789C52.4817 83.9448 52.1031 82.8486 52.0972 81.71C52.0913 80.5714 52.4585 79.4703 53.1286 78.6172C53.4412 78.2021 53.8305 77.8687 54.2694 77.6404C54.7083 77.4121 55.1862 77.2944 55.6697 77.2954C56.1414 77.2828 56.6096 77.391 57.0388 77.612C57.4679 77.833 57.8468 78.1609 58.1467 78.5709C58.8265 79.4196 59.1989 80.5243 59.1904 81.6668C59.1819 82.8094 58.7932 83.9069 58.101 84.7427V84.7839Z" fill="#020A0A"/>
</svg>
